<svg width="20" height="20" viewBox="0 0 20 20" fill="none" xmlns="http://www.w3.org/2000/svg">
<path d="M7.49996 18.8333C7.9602 18.8333 8.33329 18.4602 8.33329 18C8.33329 17.5397 7.9602 17.1666 7.49996 17.1666C7.03972 17.1666 6.66663 17.5397 6.66663 18C6.66663 18.4602 7.03972 18.8333 7.49996 18.8333Z" stroke="#282828" stroke-width="1.43015" stroke-linecap="round" stroke-linejoin="round"/>
<path d="M16.6666 18.8333C17.1269 18.8333 17.5 18.4602 17.5 18C17.5 17.5397 17.1269 17.1666 16.6666 17.1666C16.2064 17.1666 15.8333 17.5397 15.8333 18C15.8333 18.4602 16.2064 18.8333 16.6666 18.8333Z" fill="#282828" stroke="#282828" stroke-width="1.43015" stroke-linecap="round" stroke-linejoin="round"/>
<path d="M0.833313 1.33331H4.16665L6.39998 12.4916C6.47618 12.8753 6.6849 13.2199 6.9896 13.4652C7.2943 13.7105 7.67556 13.8408 8.06665 13.8333H16.1666C16.5577 13.8408 16.939 13.7105 17.2437 13.4652C17.5484 13.2199 17.7571 12.8753 17.8333 12.4916L19.1666 5.49998H4.99998" stroke="#282828" stroke-width="1.43015" stroke-linecap="round" stroke-linejoin="round"/>
</svg>
