<svg width="34" height="31" viewBox="0 0 34 31" fill="none" xmlns="http://www.w3.org/2000/svg">
<path d="M15.8903 4.42907L17.0006 5.73292L18.1109 4.42907C19.6598 2.61015 22.0422 1.45858 24.5006 1.45858C28.8285 1.45858 32.2089 4.83899 32.2089 9.16691C32.2089 11.8379 31.0209 14.3753 28.6322 17.2957C26.2268 20.2365 22.7587 23.385 18.4377 27.3033L18.4356 27.3052L16.9969 28.6149L15.5647 27.321C15.5642 27.3205 15.5637 27.32 15.5631 27.3195C11.2425 23.3932 7.7748 20.2411 5.36933 17.2982C2.98035 14.3754 1.79228 11.8379 1.79228 9.16691C1.79228 4.83899 5.17269 1.45858 9.50061 1.45858C11.959 1.45858 14.3414 2.61015 15.8903 4.42907ZM6.16764 17.6026C8.53623 20.3703 11.8987 23.4156 15.8283 26.9737L15.9694 27.1148L17.0006 28.146L18.0318 27.1148L18.1729 26.9737C22.1025 23.4156 25.465 20.3703 27.8336 17.6026C30.1934 14.8453 31.7923 12.1135 31.7923 9.16691C31.7923 5.02816 28.6394 1.87524 24.5006 1.87524C21.7263 1.87524 18.9942 3.43646 17.6471 5.80858H16.3658C15.0088 3.43975 12.2792 1.87524 9.50061 1.87524C5.36186 1.87524 2.20895 5.02816 2.20895 9.16691C2.20895 12.1135 3.80783 14.8453 6.16764 17.6026Z" stroke="#A9A9A9" stroke-width="2.91667"/>
</svg>
