<svg width="20" height="17" viewBox="0 0 20 17" fill="none" xmlns="http://www.w3.org/2000/svg">
<path d="M15.8795 1.34757C16.4357 1.57803 16.941 1.91583 17.3667 2.34166C17.7925 2.76729 18.1303 3.27265 18.3608 3.82887C18.5912 4.38508 18.7099 4.98126 18.7099 5.58333C18.7099 6.1854 18.5912 6.78158 18.3608 7.33779C18.1303 7.89401 17.7925 8.39937 17.3667 8.825L16.4833 9.70833L10 16.1917L3.51666 9.70833L2.63333 8.825C1.77359 7.96525 1.29059 6.79919 1.29059 5.58333C1.29059 4.36747 1.77359 3.20141 2.63333 2.34166C3.49307 1.48192 4.65914 0.99892 5.875 0.99892C7.09086 0.99892 8.25692 1.48192 9.11666 2.34166L10 3.225L10.8833 2.34166C11.309 1.91583 11.8143 1.57803 12.3705 1.34757C12.9268 1.1171 13.5229 0.998474 14.125 0.998474C14.7271 0.998474 15.3232 1.1171 15.8795 1.34757Z" stroke="#282828" stroke-width="1.43" stroke-linecap="round" stroke-linejoin="round"/>
</svg>
